/* XPM */
static char *_5e673b1d5f24afb8bb5d254b0b7174231O4WX81SiJB092k[] = {
/* columns rows colors chars-per-pixel */
"64 64 5 1 ",
"  c None",
". c #42192C",
"X c #9A643A",
"o c #F0C04C",
"O c #EEEBE0",
/* pixels */
"                        ....oooooooooooooooooooo....            ",
"                        ....oooooooooooooooooooo....            ",
"                        ....oooooooooooooooooooo....            ",
"                        ....oooooooooooooooooooo....            ",
"                    ....OOOOOOOOoooooooooooooooooooo....        ",
"                    ....OOOOOOOOoooooooooooooooooooo....        ",
"                    ....OOOOOOOOoooooooooooooooooooo....        ",
"                    ....OOOOOOOOoooooooooooooooooooo....        ",
"            ............OOOOOOOOooooooooooooXXXXXXXX....        ",
"            ............OOOOOOOOooooooooooooXXXXXXXX....        ",
"            ............OOOOOOOOooooooooooooXXXXXXXX....        ",
"            ............OOOOOOOOooooooooooooXXXXXXXX....        ",
"            ....oooooooooooooooooooooooooooooooooooooooo....    ",
"            ....oooooooooooooooooooooooooooooooooooooooo....    ",
"            ....oooooooooooooooooooooooooooooooooooooooo....    ",
"            ....oooooooooooooooooooooooooooooooooooooooo....    ",
"                ............................................    ",
"                ............................................    ",
"                ............................................    ",
"                ............................................    ",
"                    XXXXXXXXOOOO....OOOOOOOOXXXXXXXX....        ",
"                    XXXXXXXXOOOO....OOOOOOOOXXXXXXXX....        ",
"                    XXXXXXXXOOOO....OOOOOOOOXXXXXXXX....        ",
"                    XXXXXXXXOOOO....OOOOOOOOXXXXXXXX....        ",
"        ............XXXXXXXXOOOOOOOOOOOOOOOOXXXXXXXXXXXX        ",
"        ............XXXXXXXXOOOOOOOOOOOOOOOOXXXXXXXXXXXX        ",
"        ............XXXXXXXXOOOOOOOOOOOOOOOOXXXXXXXXXXXX        ",
"        ............XXXXXXXXOOOOOOOOOOOOOOOOXXXXXXXXXXXX        ",
"        ....XXXXXXXXXXXXXXXXXXXXXXXXXXXXXXXXXXXXXXXXXXXX        ",
"        ....XXXXXXXXXXXXXXXXXXXXXXXXXXXXXXXXXXXXXXXXXXXX        ",
"        ....XXXXXXXXXXXXXXXXXXXXXXXXXXXXXXXXXXXXXXXXXXXX        ",
"        ....XXXXXXXXXXXXXXXXXXXXXXXXXXXXXXXXXXXXXXXXXXXX        ",
"            ....XXXXXXXXXXXXXXXXXXXXXXXXXXXXXXXXXXXX....        ",
"            ....XXXXXXXXXXXXXXXXXXXXXXXXXXXXXXXXXXXX....        ",
"            ....XXXXXXXXXXXXXXXXXXXXXXXXXXXXXXXXXXXX....        ",
"            ....XXXXXXXXXXXXXXXXXXXXXXXXXXXXXXXXXXXX....        ",
"                ................XXXXXXXXXXXXXXXX........        ",
"                ................XXXXXXXXXXXXXXXX........        ",
"                ................XXXXXXXXXXXXXXXX........        ",
"                ................XXXXXXXXXXXXXXXX........        ",
"                ............XXXXXXXXXXXXXXXXXXXXXXXXXXXX....    ",
"                ............XXXXXXXXXXXXXXXXXXXXXXXXXXXX....    ",
"                ............XXXXXXXXXXXXXXXXXXXXXXXXXXXX....    ",
"                ............XXXXXXXXXXXXXXXXXXXXXXXXXXXX....    ",
"            ........XXXXXXXXXXXXXXXXXXXXXXXXXXXXXXXXXXXXXXXX....",
"            ........XXXXXXXXXXXXXXXXXXXXXXXXXXXXXXXXXXXXXXXX....",
"            ........XXXXXXXXXXXXXXXXXXXXXXXXXXXXXXXXXXXXXXXX....",
"            ........XXXXXXXXXXXXXXXXXXXXXXXXXXXXXXXXXXXXXXXX....",
"        ........XXXXXXXXXXXXXXXXXXXXXXXX........XXXXXXXXXXXX....",
"        ........XXXXXXXXXXXXXXXXXXXXXXXX........XXXXXXXXXXXX....",
"        ........XXXXXXXXXXXXXXXXXXXXXXXX........XXXXXXXXXXXX....",
"        ........XXXXXXXXXXXXXXXXXXXXXXXX........XXXXXXXXXXXX....",
"        ........XXXXXXXXXXXXXXXXXXXXXXXX........XXXXXXXXXXXX....",
"        ........XXXXXXXXXXXXXXXXXXXXXXXX........XXXXXXXXXXXX....",
"        ........XXXXXXXXXXXXXXXXXXXXXXXX........XXXXXXXXXXXX....",
"        ........XXXXXXXXXXXXXXXXXXXXXXXX........XXXXXXXXXXXX....",
"            ....XXXXXXXXXXXXXXXXXXXXXXXXXXXX................    ",
"            ....XXXXXXXXXXXXXXXXXXXXXXXXXXXX................    ",
"            ....XXXXXXXXXXXXXXXXXXXXXXXXXXXX................    ",
"            ....XXXXXXXXXXXXXXXXXXXXXXXXXXXX................    ",
"                ....XXXX........XXXXXXXXXXXXXXXX........        ",
"                ....XXXX........XXXXXXXXXXXXXXXX........        ",
"                ....XXXX........XXXXXXXXXXXXXXXX........        ",
"                ....XXXX........XXXXXXXXXXXXXXXX........        "
};
