/* XPM */
static char *_4b196ab2f994de8e9334f9f839b885048ugz3VOmMPypm4X[] = {
/* columns rows colors chars-per-pixel */
"64 64 3 1 ",
"  c #120E14",
". c #BB3030",
"X c #FB9B41",
/* pixels */
"    XXXXXXXXXXXXXXXXXXXXXXXXXXXXXXXXXXXXXXXXXXXXXXXXXXXX....    ",
"    XXXXXXXXXXXXXXXXXXXXXXXXXXXXXXXXXXXXXXXXXXXXXXXXXXXX....    ",
"    XXXXXXXXXXXXXXXXXXXXXXXXXXXXXXXXXXXXXXXXXXXXXXXXXXXX....    ",
"    XXXXXXXXXXXXXXXXXXXXXXXXXXXXXXXXXXXXXXXXXXXXXXXXXXXX....    ",
"    XXXX................................................        ",
"    XXXX................................................        ",
"    XXXX................................................        ",
"    XXXX................................................        ",
"    XXXX....                                    ........        ",
"    XXXX....                                    ........        ",
"    XXXX....                                    ........        ",
"    XXXX....                                    ........        ",
"    XXXX....    ................................XXXX....        ",
"    XXXX....    ................................XXXX....        ",
"    XXXX....    ................................XXXX....        ",
"    XXXX....    ................................XXXX....        ",
"    XXXX....    ................................XXXX....        ",
"    XXXX....    ................................XXXX....        ",
"    XXXX....    ................................XXXX....        ",
"    XXXX....    ................................XXXX....        ",
"    XXXX....    ................................XXXX....        ",
"    XXXX....    ................................XXXX....        ",
"    XXXX....    ................................XXXX....        ",
"    XXXX....    ................................XXXX....        ",
"    XXXX....    ................................XXXX....        ",
"    XXXX....    ................................XXXX....        ",
"    XXXX....    ................................XXXX....        ",
"    XXXX....    ................................XXXX....        ",
"    XXXX....    ................................XXXX....        ",
"    XXXX....    ................................XXXX....        ",
"    XXXX....    ................................XXXX....        ",
"    XXXX....    ................................XXXX....        ",
"    XXXX....    ........................XXXX....XXXX....        ",
"    XXXX....    ........................XXXX....XXXX....        ",
"    XXXX....    ........................XXXX....XXXX....        ",
"    XXXX....    ........................XXXX....XXXX....        ",
"    XXXX....    ........................XXXX....XXXX....        ",
"    XXXX....    ........................XXXX....XXXX....        ",
"    XXXX....    ........................XXXX....XXXX....        ",
"    XXXX....    ........................XXXX....XXXX....        ",
"    XXXX....    ................................XXXX....        ",
"    XXXX....    ................................XXXX....        ",
"    XXXX....    ................................XXXX....        ",
"    XXXX....    ................................XXXX....        ",
"    XXXX....    ................................XXXX....        ",
"    XXXX....    ................................XXXX....        ",
"    XXXX....    ................................XXXX....        ",
"    XXXX....    ................................XXXX....        ",
"    XXXX....    ................................XXXX....        ",
"    XXXX....    ................................XXXX....        ",
"    XXXX....    ................................XXXX....        ",
"    XXXX....    ................................XXXX....        ",
"    XXXX........XXXXXXXXXXXXXXXXXXXXXXXXXXXXXXXXXXXX....        ",
"    XXXX........XXXXXXXXXXXXXXXXXXXXXXXXXXXXXXXXXXXX....        ",
"    XXXX........XXXXXXXXXXXXXXXXXXXXXXXXXXXXXXXXXXXX....        ",
"    XXXX........XXXXXXXXXXXXXXXXXXXXXXXXXXXXXXXXXXXX....        ",
"    XXXX................................................        ",
"    XXXX................................................        ",
"    XXXX................................................        ",
"    XXXX................................................        ",
"    ....                                                        ",
"    ....                                                        ",
"    ....                                                        ",
"    ....                                                        "
};
