/* XPM */
static char *f9a84c61f3014aa6b84d0289486b0455Dc1EUCxsfSWAI91q[] = {
/* columns rows colors chars-per-pixel */
"64 64 3 1 ",
"  c #120E14",
". c #541D29",
"X c #BB3030",
/* pixels */
"                            ............                        ",
"                            ............                        ",
"                            ............                        ",
"                            ............                        ",
"                ....                                            ",
"                ....                                            ",
"                ....                                            ",
"                ....                                            ",
"                ....                                            ",
"                ....                                            ",
"                ....                                            ",
"                ....                                            ",
"                ....                            ....            ",
"                ....                            ....            ",
"                ....                            ....            ",
"                ....                            ....            ",
"    ............XXXXXXXX................................        ",
"    ............XXXXXXXX................................        ",
"    ............XXXXXXXX................................        ",
"    ............XXXXXXXX................................        ",
"                                ....                            ",
"                                ....                            ",
"                                ....                            ",
"                                ....                            ",
"                                ....                            ",
"                                ....                            ",
"                                ....                            ",
"                                ....                            ",
"                                XXXX                            ",
"                                XXXX                            ",
"                                XXXX                            ",
"                                XXXX                            ",
"........................XXXXXXXXXXXXXXXX    XXXX................",
"........................XXXXXXXXXXXXXXXX    XXXX................",
"........................XXXXXXXXXXXXXXXX    XXXX................",
"........................XXXXXXXXXXXXXXXX    XXXX................",
"                ....                            ....            ",
"                ....                            ....            ",
"                ....                            ....            ",
"                ....                            ....            ",
"                ....                            ....            ",
"                ....                            ....            ",
"                ....                            ....            ",
"                ....                            ....            ",
"                                                XXXX            ",
"                                                XXXX            ",
"                                                XXXX            ",
"                                                XXXX            ",
"                            ................XXXXXXXXXXXX....    ",
"                            ................XXXXXXXXXXXX....    ",
"                            ................XXXXXXXXXXXX....    ",
"                            ................XXXXXXXXXXXX....    ",
"                                ....                            ",
"                                ....                            ",
"                                ....                            ",
"                                ....                            ",
"                                ....                            ",
"                                ....                            ",
"                                ....                            ",
"                                ....                            ",
"                                ....                            ",
"                                ....                            ",
"                                ....                            ",
"                                ....                            "
};
