/* XPM */
static char *_2db0ae6e3424eedf1b365c93c2182f8OqPRxLuKWiGEEGDW[] = {
/* columns rows colors chars-per-pixel */
"64 64 3 1 ",
"  c #120E14",
". c #901F3D",
"X c #EC6A45",
/* pixels */
"XXXXXXXXXXXXXXXXXXXXXXXXXXXXXXXXXXXXXXXXXXXXXXXXXXXXXXXXXXXX....",
"XXXXXXXXXXXXXXXXXXXXXXXXXXXXXXXXXXXXXXXXXXXXXXXXXXXXXXXXXXXX....",
"XXXXXXXXXXXXXXXXXXXXXXXXXXXXXXXXXXXXXXXXXXXXXXXXXXXXXXXXXXXX....",
"XXXXXXXXXXXXXXXXXXXXXXXXXXXXXXXXXXXXXXXXXXXXXXXXXXXXXXXXXXXX....",
"XXXX........XXXXXXXXXXXX....XXXXXXXX....XXXX....XXXXXXXX....    ",
"XXXX........XXXXXXXXXXXX....XXXXXXXX....XXXX....XXXXXXXX....    ",
"XXXX........XXXXXXXXXXXX....XXXXXXXX....XXXX....XXXXXXXX....    ",
"XXXX........XXXXXXXXXXXX....XXXXXXXX....XXXX....XXXXXXXX....    ",
"XXXXXXXX....................................................    ",
"XXXXXXXX....................................................    ",
"XXXXXXXX....................................................    ",
"XXXXXXXX....................................................    ",
"XXXX....................................................        ",
"XXXX....................................................        ",
"XXXX....................................................        ",
"XXXX....................................................        ",
"XXXXXXXX................................................        ",
"XXXXXXXX................................................        ",
"XXXXXXXX................................................        ",
"XXXXXXXX................................................        ",
"XXXXXXXX....................................................    ",
"XXXXXXXX....................................................    ",
"XXXXXXXX....................................................    ",
"XXXXXXXX....................................................    ",
"XXXX........            ....    ....    ....            ....    ",
"XXXX........            ....    ....    ....            ....    ",
"XXXX........            ....    ....    ....            ....    ",
"XXXX........            ....    ....    ....            ....    ",
"....                                                            ",
"....                                                            ",
"....                                                            ",
"....                                                            ",
"XXXXXXXXXXXXXXXXXXXXXXXXXXXX....XXXXXXXXXXXXXXXXXXXXXXXXXXXXXXXX",
"XXXXXXXXXXXXXXXXXXXXXXXXXXXX....XXXXXXXXXXXXXXXXXXXXXXXXXXXXXXXX",
"XXXXXXXXXXXXXXXXXXXXXXXXXXXX....XXXXXXXXXXXXXXXXXXXXXXXXXXXXXXXX",
"XXXXXXXXXXXXXXXXXXXXXXXXXXXX....XXXXXXXXXXXXXXXXXXXXXXXXXXXXXXXX",
"....XXXXXXXX....XXXXXXXX....    XXXXXXXX....XXXX....XXXXXXXX....",
"....XXXXXXXX....XXXXXXXX....    XXXXXXXX....XXXX....XXXXXXXX....",
"....XXXXXXXX....XXXXXXXX....    XXXXXXXX....XXXX....XXXXXXXX....",
"....XXXXXXXX....XXXXXXXX....    XXXXXXXX....XXXX....XXXXXXXX....",
"............................    XXXX............................",
"............................    XXXX............................",
"............................    XXXX............................",
"............................    XXXX............................",
"........................        XXXX............................",
"........................        XXXX............................",
"........................        XXXX............................",
"........................        XXXX............................",
"........................        XXXXXXXX........................",
"........................        XXXXXXXX........................",
"........................        XXXXXXXX........................",
"........................        XXXXXXXX........................",
"........................        XXXXXXXX........................",
"........................        XXXXXXXX........................",
"........................        XXXXXXXX........................",
"........................        XXXXXXXX........................",
"........        ............    XXXX........            ....    ",
"........        ............    XXXX........            ....    ",
"........        ............    XXXX........            ....    ",
"........        ............    XXXX........            ....    ",
"                                ....                            ",
"                                ....                            ",
"                                ....                            ",
"                                ....                            "
};
