/* XPM */
static char *_baecedef1e748288ef4a5a3ef18d669BLN4mRXtu7ldgdKb[] = {
/* columns rows colors chars-per-pixel */
"64 64 4 1 ",
"  c None",
". c #BB3030",
"X c #F0C04C",
"o c #EEEBE0",
/* pixels */
"                                                                ",
"                                                                ",
"                                                                ",
"                                                                ",
"                                                                ",
"                                                                ",
"                                                                ",
"                                                                ",
"                                                                ",
"                                                                ",
"                                                                ",
"                                                                ",
"                    oooooooooooooooooooooooo                    ",
"                    oooooooooooooooooooooooo                    ",
"                    oooooooooooooooooooooooo                    ",
"                    oooooooooooooooooooooooo                    ",
"                ooooXXXXXXXXXXXXXXXXXXXXXXXXoooo                ",
"                ooooXXXXXXXXXXXXXXXXXXXXXXXXoooo                ",
"                ooooXXXXXXXXXXXXXXXXXXXXXXXXoooo                ",
"                ooooXXXXXXXXXXXXXXXXXXXXXXXXoooo                ",
"            ooooXXXXXXXX................XXXXXXXX....            ",
"            ooooXXXXXXXX................XXXXXXXX....            ",
"            ooooXXXXXXXX................XXXXXXXX....            ",
"            ooooXXXXXXXX................XXXXXXXX....            ",
"            ooooXXXX....XXXXXXXXXXXXXXXXooooXXXX....            ",
"            ooooXXXX....XXXXXXXXXXXXXXXXooooXXXX....            ",
"            ooooXXXX....XXXXXXXXXXXXXXXXooooXXXX....            ",
"            ooooXXXX....XXXXXXXXXXXXXXXXooooXXXX....            ",
"            ooooXXXX....XXXXXXXXXXXXXXXXooooXXXX....            ",
"            ooooXXXX....XXXXXXXXXXXXXXXXooooXXXX....            ",
"            ooooXXXX....XXXXXXXXXXXXXXXXooooXXXX....            ",
"            ooooXXXX....XXXXXXXXXXXXXXXXooooXXXX....            ",
"            ooooXXXX....XXXXXXXXXXXXXXXXooooXXXX....            ",
"            ooooXXXX....XXXXXXXXXXXXXXXXooooXXXX....            ",
"            ooooXXXX....XXXXXXXXXXXXXXXXooooXXXX....            ",
"            ooooXXXX....XXXXXXXXXXXXXXXXooooXXXX....            ",
"            ooooXXXX....XXXXXXXXXXXXXXXXooooXXXX....            ",
"            ooooXXXX....XXXXXXXXXXXXXXXXooooXXXX....            ",
"            ooooXXXX....XXXXXXXXXXXXXXXXooooXXXX....            ",
"            ooooXXXX....XXXXXXXXXXXXXXXXooooXXXX....            ",
"            ooooXXXXXXXXooooooooooooooooXXXXXXXX....            ",
"            ooooXXXXXXXXooooooooooooooooXXXXXXXX....            ",
"            ooooXXXXXXXXooooooooooooooooXXXXXXXX....            ",
"            ooooXXXXXXXXooooooooooooooooXXXXXXXX....            ",
"                ....XXXXXXXXXXXXXXXXXXXXXXXX....                ",
"                ....XXXXXXXXXXXXXXXXXXXXXXXX....                ",
"                ....XXXXXXXXXXXXXXXXXXXXXXXX....                ",
"                ....XXXXXXXXXXXXXXXXXXXXXXXX....                ",
"                    ........................                    ",
"                    ........................                    ",
"                    ........................                    ",
"                    ........................                    ",
"                                                                ",
"                                                                ",
"                                                                ",
"                                                                ",
"                                                                ",
"                                                                ",
"                                                                ",
"                                                                ",
"                                                                ",
"                                                                ",
"                                                                ",
"                                                                "
};
