/* XPM */
static char *_8e4d6f7befc4d0ffe18361ea55c4647R2A8hZ5YVzb2usMV[] = {
/* columns rows colors chars-per-pixel */
"64 72 5 1 ",
"  c None",
". c #42192C",
"X c #9A643A",
"o c #F0C04C",
"O c #EEEBE0",
/* pixels */
"                        OOOOOOOOOOOOOOOOOOOO                    ",
"                        OOOOOOOOOOOOOOOOOOOO                    ",
"                        OOOOOOOOOOOOOOOOOOOO                    ",
"                        OOOOOOOOOOOOOOOOOOOO                    ",
"                    OOOO....................OOOO                ",
"                    OOOO....................OOOO                ",
"                    OOOO....................OOOO                ",
"                    OOOO....................OOOO                ",
"                OOOO....oooooooooooooooooooo....OOOO            ",
"                OOOO....oooooooooooooooooooo....OOOO            ",
"                OOOO....oooooooooooooooooooo....OOOO            ",
"                OOOO....oooooooooooooooooooo....OOOO            ",
"    OOOOOOOOOOOO....OOOOOOOOoooooooooooooooooooo....OOOO        ",
"    OOOOOOOOOOOO....OOOOOOOOoooooooooooooooooooo....OOOO        ",
"    OOOOOOOOOOOO....OOOOOOOOoooooooooooooooooooo....OOOO        ",
"    OOOOOOOOOOOO....OOOOOOOOoooooooooooooooooooo....OOOO        ",
"    OOOO............OOOOOOOOooooooooooooXXXXXXXX....OOOO        ",
"    OOOO............OOOOOOOOooooooooooooXXXXXXXX....OOOO        ",
"    OOOO............OOOOOOOOooooooooooooXXXXXXXX....OOOO        ",
"    OOOO............OOOOOOOOooooooooooooXXXXXXXX....OOOO        ",
"    OOOO....oooooooooooooooooooooooooooooooooooooooo....OOOO    ",
"    OOOO....oooooooooooooooooooooooooooooooooooooooo....OOOO    ",
"    OOOO....oooooooooooooooooooooooooooooooooooooooo....OOOO    ",
"    OOOO....oooooooooooooooooooooooooooooooooooooooo....OOOO    ",
"        OOOO............................................OOOO    ",
"        OOOO............................................OOOO    ",
"        OOOO............................................OOOO    ",
"        OOOO............................................OOOO    ",
"OOOOOOOOOOOOOOOOXXXXXXXXOOOO....OOOOOOOOXXXXXXXX....OOOOOOOO    ",
"OOOOOOOOOOOOOOOOXXXXXXXXOOOO....OOOOOOOOXXXXXXXX....OOOOOOOO    ",
"OOOOOOOOOOOOOOOOXXXXXXXXOOOO....OOOOOOOOXXXXXXXX....OOOOOOOO    ",
"OOOOOOOOOOOOOOOOXXXXXXXXOOOO....OOOOOOOOXXXXXXXX....OOOOOOOO    ",
"OOOO............XXXXXXXXOOOOOOOOOOOOOOOOXXXXXXXXXXXXOOOO        ",
"OOOO............XXXXXXXXOOOOOOOOOOOOOOOOXXXXXXXXXXXXOOOO        ",
"OOOO............XXXXXXXXOOOOOOOOOOOOOOOOXXXXXXXXXXXXOOOO        ",
"OOOO............XXXXXXXXOOOOOOOOOOOOOOOOXXXXXXXXXXXXOOOO        ",
"OOOO....XXXXXXXXXXXXXXXXXXXXXXXXXXXXXXXXXXXXXXXXXXXXOOOO        ",
"OOOO....XXXXXXXXXXXXXXXXXXXXXXXXXXXXXXXXXXXXXXXXXXXXOOOO        ",
"OOOO....XXXXXXXXXXXXXXXXXXXXXXXXXXXXXXXXXXXXXXXXXXXXOOOO        ",
"OOOO....XXXXXXXXXXXXXXXXXXXXXXXXXXXXXXXXXXXXXXXXXXXXOOOO        ",
"    OOOO....XXXXXXXXXXXXXXXXXXXXXXXXXXXXXXXXXXXX....OOOO        ",
"    OOOO....XXXXXXXXXXXXXXXXXXXXXXXXXXXXXXXXXXXX....OOOO        ",
"    OOOO....XXXXXXXXXXXXXXXXXXXXXXXXXXXXXXXXXXXX....OOOO        ",
"    OOOO....XXXXXXXXXXXXXXXXXXXXXXXXXXXXXXXXXXXX....OOOO        ",
"        OOOO................XXXXXXXXXXXXXXXX........OOOO        ",
"        OOOO................XXXXXXXXXXXXXXXX........OOOO        ",
"        OOOO................XXXXXXXXXXXXXXXX........OOOO        ",
"        OOOO................XXXXXXXXXXXXXXXX........OOOO        ",
"        OOOO............XXXXXXXXXXXXXXXXXXXXXXXXXXXX....OOOO    ",
"        OOOO............XXXXXXXXXXXXXXXXXXXXXXXXXXXX....OOOO    ",
"        OOOO............XXXXXXXXXXXXXXXXXXXXXXXXXXXX....OOOO    ",
"        OOOO............XXXXXXXXXXXXXXXXXXXXXXXXXXXX....OOOO    ",
"    OOOO........XXXXXXXXXXXXXXXXXXXXXXXXXXXXXXXXXXXXXXXX....OOOO",
"    OOOO........XXXXXXXXXXXXXXXXXXXXXXXXXXXXXXXXXXXXXXXX....OOOO",
"    OOOO........XXXXXXXXXXXXXXXXXXXXXXXXXXXXXXXXXXXXXXXX....OOOO",
"    OOOO........XXXXXXXXXXXXXXXXXXXXXXXXXXXXXXXXXXXXXXXX....OOOO",
"OOOO........XXXXXXXXXXXXXXXXXXXXXXXX........XXXXXXXXXXXX....OOOO",
"OOOO........XXXXXXXXXXXXXXXXXXXXXXXX........XXXXXXXXXXXX....OOOO",
"OOOO........XXXXXXXXXXXXXXXXXXXXXXXX........XXXXXXXXXXXX....OOOO",
"OOOO........XXXXXXXXXXXXXXXXXXXXXXXX........XXXXXXXXXXXX....OOOO",
"OOOO........XXXXXXXXXXXXXXXXXXXXXXXX........XXXXXXXXXXXX....OOOO",
"OOOO........XXXXXXXXXXXXXXXXXXXXXXXX........XXXXXXXXXXXX....OOOO",
"OOOO........XXXXXXXXXXXXXXXXXXXXXXXX........XXXXXXXXXXXX....OOOO",
"OOOO........XXXXXXXXXXXXXXXXXXXXXXXX........XXXXXXXXXXXX....OOOO",
"    OOOO....XXXXXXXXXXXXXXXXXXXXXXXXXXXX................OOOO    ",
"    OOOO....XXXXXXXXXXXXXXXXXXXXXXXXXXXX................OOOO    ",
"    OOOO....XXXXXXXXXXXXXXXXXXXXXXXXXXXX................OOOO    ",
"    OOOO....XXXXXXXXXXXXXXXXXXXXXXXXXXXX................OOOO    ",
"        OOOO....XXXX........XXXXXXXXXXXXXXXX........OOOO        ",
"        OOOO....XXXX........XXXXXXXXXXXXXXXX........OOOO        ",
"        OOOO....XXXX........XXXXXXXXXXXXXXXX........OOOO        ",
"        OOOO....XXXX........XXXXXXXXXXXXXXXX........OOOO        "
};
